<?xml version="1.1" encoding="UTF-8"?>
<svg version="2.0" viewBox="0 0 730 180" xmlns="http://www.w3.org/2000/svg">
	<path d="M112.976 44V56H68.9761V44H112.976Z" fill="#FFFFFF"/>
	<path d="M116.976 44H160.976V56H116.976V44Z" fill="#FFFFFF"/>
	<path fill-rule="evenodd" clip-rule="evenodd" d="M160.976 60H116.976V88H160.976V60ZM128.976 76V72H148.976V76H128.976Z" fill="#FFFFFF"/>
	<path d="M68.9761 60H112.976V72H96.9761V136H84.9761V72H68.9761V60Z" fill="#FFFFFF"/>
	<path d="M68.9761 136H80.9761V76H68.9761V136Z" fill="#FFFFFF"/>
	<path d="M112.976 136H100.976V76H112.976V136Z" fill="#FFFFFF"/>
	<path fill-rule="evenodd" clip-rule="evenodd" d="M160.976 136V92H116.976V136H160.976ZM128.976 108V104H132.976V108H128.976ZM128.976 124V120H132.976V124H128.976ZM144.976 104H148.976V108H144.976V104ZM144.976 124V120H148.976V124H144.976Z" fill="#FFFFFF"/>
	<path d="M166.976 88V85H197V88H166.976Z" fill="#FFFFFF"/>
	<path d="M62.9761 85H33V88H62.9761V85Z" fill="#FFFFFF"/>
	<path d="M166.976 97H197V104H166.976V97Z" fill="#FFFFFF"/>
	<path d="M62.9761 97H33V104H62.9761V97Z" fill="#FFFFFF"/>
	<path d="M257.176 63.4023H254.398V59.1836H246.102V56.8984H254.398V52.6797H246.4C245.393 55.1641 243.729 57.3086 241.408 59.1133C239.088 60.918 236.234 62.3242 232.848 63.332L231.688 61.1523C234.207 60.4023 236.393 59.4473 238.244 58.2871C240.096 57.1152 241.555 55.7676 242.621 54.2441C243.688 52.7207 244.314 51.0625 244.502 49.2695H233.27V46.9492H247.508C247.508 48.1562 247.373 49.3281 247.104 50.4648H254.398V44.6289H257.176V63.4023ZM246.945 63.7188C249.043 63.7188 250.877 63.959 252.447 64.4395C254.018 64.9199 255.225 65.6113 256.068 66.5137C256.924 67.4043 257.352 68.4648 257.352 69.6953C257.352 70.9375 256.924 72.0098 256.068 72.9121C255.225 73.8145 254.018 74.5059 252.447 74.9863C250.877 75.4668 249.043 75.707 246.945 75.707C244.824 75.707 242.979 75.4668 241.408 74.9863C239.838 74.5059 238.625 73.8145 237.77 72.9121C236.926 72.0098 236.504 70.9375 236.504 69.6953C236.504 68.4648 236.926 67.4043 237.77 66.5137C238.625 65.6113 239.838 64.9199 241.408 64.4395C242.979 63.959 244.824 63.7188 246.945 63.7188ZM246.945 65.9336C245.387 65.9219 244.021 66.0684 242.85 66.373C241.689 66.666 240.793 67.0996 240.16 67.6738C239.527 68.248 239.211 68.9219 239.211 69.6953C239.211 70.4688 239.527 71.1426 240.16 71.7168C240.793 72.2793 241.689 72.707 242.85 73C244.01 73.3047 245.375 73.457 246.945 73.457C248.492 73.457 249.84 73.3047 250.988 73C252.137 72.707 253.021 72.2793 253.643 71.7168C254.275 71.1426 254.598 70.4688 254.609 69.6953C254.598 68.9219 254.275 68.248 253.643 67.6738C253.01 67.0996 252.119 66.666 250.971 66.373C249.822 66.0684 248.48 65.9219 246.945 65.9336ZM290.855 63.0508H262.379V60.7656H275.246V57.0039H266.176V45.332H268.918V48.9531H284.387V45.332H287.129V57.0039H277.988V60.7656H290.855V63.0508ZM287.34 75.8477H284.562V68.3594H265.543V66.1445H287.34V75.8477ZM284.387 54.7891V51.0625H268.918V54.7891H284.387ZM318.559 50.8867V51.2734C318.535 53.8516 318.453 56.166 318.312 58.2168C318.184 60.2559 317.879 62.6172 317.398 65.3008L314.586 64.9844C314.961 63.1328 315.23 61.3867 315.395 59.7461C315.57 58.1055 315.676 56.6465 315.711 55.3691C315.758 54.0918 315.781 52.5977 315.781 50.8867V50.043H296.516V47.7578H318.559V50.8867ZM321.969 71.418H293.492V69.1328H304.672V57.9531H307.379V69.1328H321.969V71.418ZM353.117 61.7852H324.605V59.4648H353.117V61.7852ZM349.777 56.4766H328.227V45.8594H349.566V48.1797H330.934V54.2266H349.777V56.4766ZM338.844 64.5273C341.07 64.5273 342.986 64.75 344.592 65.1953C346.209 65.6289 347.445 66.2676 348.301 67.1113C349.156 67.9551 349.59 68.9688 349.602 70.1523C349.59 71.3477 349.156 72.3672 348.301 73.2109C347.445 74.0547 346.215 74.6934 344.609 75.127C343.004 75.5605 341.082 75.7773 338.844 75.7773C336.594 75.7773 334.66 75.5605 333.043 75.127C331.426 74.6934 330.189 74.0547 329.334 73.2109C328.479 72.3672 328.051 71.3477 328.051 70.1523C328.051 68.9688 328.479 67.9551 329.334 67.1113C330.189 66.2676 331.426 65.6289 333.043 65.1953C334.66 64.75 336.594 64.5273 338.844 64.5273ZM338.844 66.6719C337.168 66.6836 335.732 66.8301 334.537 67.1113C333.342 67.3809 332.428 67.7793 331.795 68.3066C331.162 68.8223 330.852 69.4375 330.863 70.1523C330.852 71.2539 331.543 72.1035 332.938 72.7012C334.344 73.2988 336.312 73.5977 338.844 73.5977C341.34 73.5977 343.291 73.2988 344.697 72.7012C346.115 72.1035 346.824 71.2539 346.824 70.1523C346.824 69.4375 346.502 68.8223 345.857 68.3066C345.225 67.7793 344.311 67.3809 343.115 67.1113C341.92 66.8301 340.496 66.6836 338.844 66.6719ZM374.422 50.2188H355.789V47.9688H363.734V44.4531H366.477V47.9688H374.422V50.2188ZM365.105 51.8359C366.594 51.8477 367.9 52.0879 369.025 52.5566C370.162 53.0137 371.041 53.6699 371.662 54.5254C372.295 55.3691 372.617 56.3594 372.629 57.4961C372.617 58.6211 372.295 59.6113 371.662 60.4668C371.041 61.3105 370.162 61.9668 369.025 62.4355C367.9 62.8926 366.594 63.1211 365.105 63.1211C363.617 63.1211 362.299 62.8926 361.15 62.4355C360.014 61.9668 359.129 61.3105 358.496 60.4668C357.875 59.6113 357.57 58.6211 357.582 57.4961C357.57 56.3594 357.875 55.3691 358.496 54.5254C359.129 53.6699 360.014 53.0137 361.15 52.5566C362.299 52.0879 363.617 51.8477 365.105 51.8359ZM365.105 53.9805C364.133 53.9922 363.271 54.1445 362.521 54.4375C361.783 54.7305 361.209 55.1406 360.799 55.668C360.4 56.1953 360.207 56.8047 360.219 57.4961C360.207 58.1758 360.4 58.7734 360.799 59.2891C361.209 59.8047 361.783 60.2031 362.521 60.4844C363.271 60.7656 364.133 60.9062 365.105 60.9062C366.066 60.9062 366.916 60.7656 367.654 60.4844C368.404 60.2031 368.984 59.8047 369.395 59.2891C369.805 58.7734 370.016 58.1758 370.027 57.4961C370.016 56.8047 369.805 56.1953 369.395 55.668C368.984 55.1406 368.404 54.7305 367.654 54.4375C366.916 54.1445 366.066 53.9922 365.105 53.9805ZM380.152 53.2773H384.863V55.5977H380.152V64.1406H377.41V44.5938H380.152V53.2773ZM380.152 75.8477H377.41V68.1133H359.691V65.8633H380.152V75.8477ZM411.934 51.2383C411.934 53.0195 411.916 54.5371 411.881 55.791C411.846 57.0449 411.746 58.457 411.582 60.0273C411.418 61.5977 411.16 63.2852 410.809 65.0898L408.102 64.7734C408.453 63.0625 408.711 61.4395 408.875 59.9043C409.039 58.3574 409.139 56.9629 409.174 55.7207C409.209 54.4785 409.227 52.9844 409.227 51.2383V50.043H389.82V47.7578H411.934V51.2383ZM415.309 71.418H386.832V69.1328H393.898V58.832H396.641V69.1328H401.703V58.832H404.41V69.1328H415.309V71.418ZM270.547 116.922H230.984V111.109H270.547V116.922ZM250.672 118.516C253.812 118.516 256.516 118.836 258.781 119.477C261.047 120.102 262.789 121.023 264.008 122.242C265.227 123.461 265.844 124.938 265.859 126.672C265.844 128.375 265.227 129.828 264.008 131.031C262.789 132.25 261.047 133.172 258.781 133.797C256.516 134.422 253.812 134.734 250.672 134.734C247.484 134.734 244.742 134.422 242.445 133.797C240.148 133.172 238.391 132.25 237.172 131.031C235.953 129.828 235.344 128.375 235.344 126.672C235.344 124.938 235.953 123.461 237.172 122.242C238.391 121.023 240.148 120.102 242.445 119.477C244.742 118.836 247.484 118.516 250.672 118.516ZM250.672 124.188C248.844 124.188 247.367 124.273 246.242 124.445C245.133 124.602 244.312 124.859 243.781 125.219C243.266 125.578 243.016 126.062 243.031 126.672C243.016 127.531 243.602 128.148 244.789 128.523C245.992 128.883 247.953 129.062 250.672 129.062C253.328 129.062 255.266 128.883 256.484 128.523C257.703 128.148 258.312 127.531 258.312 126.672C258.312 125.766 257.703 125.125 256.484 124.75C255.281 124.375 253.344 124.188 250.672 124.188ZM250.766 92.125C253.953 92.1406 256.75 92.5078 259.156 93.2266C261.578 93.9297 263.453 94.9297 264.781 96.2266C266.109 97.5234 266.781 99.0469 266.797 100.797C266.781 102.562 266.109 104.094 264.781 105.391C263.453 106.688 261.578 107.688 259.156 108.391C256.75 109.094 253.953 109.453 250.766 109.469C247.547 109.453 244.719 109.094 242.281 108.391C239.859 107.688 237.984 106.688 236.656 105.391C235.328 104.078 234.672 102.547 234.688 100.797C234.672 99.0469 235.328 97.5234 236.656 96.2266C237.984 94.9297 239.859 93.9297 242.281 93.2266C244.719 92.5078 247.547 92.1406 250.766 92.125ZM250.766 97.8906C247.938 97.9219 245.852 98.1562 244.508 98.5938C243.164 99.0312 242.5 99.7656 242.516 100.797C242.5 101.812 243.164 102.547 244.508 103C245.867 103.438 247.953 103.656 250.766 103.656C253.516 103.656 255.578 103.43 256.953 102.977C258.328 102.523 259.016 101.797 259.016 100.797C259.016 99.7812 258.336 99.0547 256.977 98.6172C255.617 98.1641 253.547 97.9219 250.766 97.8906ZM312.031 117.25H272.469V111.297H280.812V106.656C279.297 105.938 278.141 105.047 277.344 103.984C276.547 102.922 276.156 101.719 276.172 100.375C276.156 98.625 276.805 97.1094 278.117 95.8281C279.445 94.5469 281.32 93.5625 283.742 92.875C286.18 92.1719 289.016 91.8125 292.25 91.7969C295.453 91.8125 298.258 92.1719 300.664 92.875C303.086 93.5625 304.953 94.5469 306.266 95.8281C307.594 97.1094 308.266 98.625 308.281 100.375C308.266 101.75 307.836 102.977 306.992 104.055C306.148 105.133 304.938 106.039 303.359 106.773V111.297H312.031V117.25ZM292.156 118.797C295.297 118.797 298 119.102 300.266 119.711C302.531 120.32 304.273 121.219 305.492 122.406C306.711 123.594 307.328 125.031 307.344 126.719C307.328 128.422 306.711 129.859 305.492 131.031C304.289 132.219 302.547 133.117 300.266 133.727C298 134.336 295.297 134.641 292.156 134.641C288.969 134.641 286.227 134.336 283.93 133.727C281.633 133.117 279.875 132.219 278.656 131.031C277.438 129.859 276.828 128.422 276.828 126.719C276.828 125.031 277.438 123.594 278.656 122.406C279.875 121.219 281.633 120.32 283.93 119.711C286.227 119.102 288.969 118.797 292.156 118.797ZM292.156 124.422C290.312 124.438 288.836 124.523 287.727 124.68C286.617 124.82 285.797 125.055 285.266 125.383C284.75 125.711 284.5 126.156 284.516 126.719C284.5 127.562 285.094 128.172 286.297 128.547C287.5 128.922 289.453 129.109 292.156 129.109C294.797 129.109 296.727 128.922 297.945 128.547C299.18 128.172 299.797 127.562 299.797 126.719C299.797 126.156 299.523 125.711 298.977 125.383C298.445 125.055 297.625 124.82 296.516 124.68C295.406 124.523 293.953 124.438 292.156 124.422ZM292.25 97.5625C289.453 97.5625 287.375 97.7891 286.016 98.2422C284.656 98.6953 283.984 99.4062 284 100.375C283.984 101.328 284.648 102.023 285.992 102.461C287.352 102.883 289.438 103.094 292.25 103.094C295 103.094 297.062 102.875 298.438 102.438C299.812 102 300.5 101.312 300.5 100.375C300.5 99.4062 299.812 98.6953 298.438 98.2422C297.062 97.7891 295 97.5625 292.25 97.5625ZM295.859 111.297V108.555C294.781 108.664 293.578 108.719 292.25 108.719C291.109 108.719 289.828 108.664 288.406 108.555V111.297H295.859ZM338.516 99.5781C338.516 102.688 338.453 105.438 338.328 107.828C338.203 110.219 337.891 112.891 337.391 115.844L330.031 115.281C330.422 112.734 330.68 110.414 330.805 108.32C330.93 106.211 331.008 103.875 331.039 101.312H315.781V95.3594H338.516V99.5781ZM328.062 120.016C332.547 119.797 336.391 119.484 339.594 119.078L340.062 124.609C336.469 125.25 332.711 125.688 328.789 125.922C324.883 126.141 320.766 126.25 316.438 126.25H314.234L313.625 120.344H314.234C315.297 120.328 316.367 120.312 317.445 120.297C318.523 120.281 319.609 120.266 320.703 120.25V107.828H328.062V120.016ZM348.828 108.25H353.984V114.484H348.828V134.641H341.188V91.2812H348.828V108.25ZM381.031 100.562H355.391V94.7031H364.438V91.0938H371.984V94.7031H381.031V100.562ZM368.188 101.406C370.266 101.406 372.125 101.75 373.766 102.438C375.422 103.125 376.711 104.078 377.633 105.297C378.555 106.516 379.016 107.906 379.016 109.469C379.016 111.062 378.555 112.477 377.633 113.711C376.711 114.93 375.43 115.883 373.789 116.57C372.148 117.242 370.281 117.578 368.188 117.578C366.109 117.578 364.242 117.242 362.586 116.57C360.93 115.883 359.625 114.922 358.672 113.688C357.734 112.453 357.266 111.047 357.266 109.469C357.266 107.922 357.734 106.539 358.672 105.32C359.625 104.086 360.93 103.125 362.586 102.438C364.242 101.75 366.109 101.406 368.188 101.406ZM368.188 106.938C367.078 106.938 366.203 107.148 365.562 107.57C364.938 107.992 364.625 108.625 364.625 109.469C364.625 110.328 364.938 110.961 365.562 111.367C366.188 111.758 367.062 111.938 368.188 111.906C369.344 111.938 370.25 111.758 370.906 111.367C371.562 110.961 371.891 110.328 371.891 109.469C371.891 108.625 371.555 107.992 370.883 107.57C370.227 107.148 369.328 106.938 368.188 106.938ZM390.125 102.109H395.516V108.156H390.125V118.562H382.578V91.2812H390.125V102.109ZM390.125 134.641H382.578V125.969H360.453V120.016H390.125V134.641ZM436.484 121.656H420.266V134.641H412.812V121.656H396.922V115.844H436.484V121.656ZM408.641 97.2812H424.531V92.9219H432.078V112.375H401.234V92.9219H408.641V97.2812ZM424.531 106.375V103.094H408.641V106.375H424.531ZM472.109 93.2031C472.109 97.4375 471.445 101.125 470.117 104.266C468.789 107.391 466.656 110.078 463.719 112.328C460.797 114.578 456.938 116.422 452.141 117.859L449.234 111.953C454.031 110.625 457.617 108.875 459.992 106.703L450.453 107.406L449.422 101.594L463.484 101.266C463.703 100.547 463.859 99.8438 463.953 99.1562H451.625V93.2031H472.109ZM485.75 115.891H478.25V107.781H471.688V101.734H478.25V91.375H485.75V115.891ZM485.75 134.266H456.641V117.578H485.75V134.266ZM464.047 128.266H478.297V123.484H464.047V128.266ZM526.719 98.9219H521.609V107.172H526.203V113.125H494.141V107.172H498.734V98.9219H493.812V93.0156H526.719V98.9219ZM529.906 121.938H521.656V134.641H514.156V121.938H506.469V134.641H498.828V121.938H490.344V115.891H529.906V121.938ZM514.156 107.172V98.9219H506.281V107.172H514.156ZM568.812 134.781H561.359V111.906H554.75V105.953H561.359V91.2812H568.812V134.781ZM554.094 100.75H541.297V106.75H552.734V112.562H541.297V119.266C543.953 119.234 546.43 119.148 548.727 119.008C551.023 118.852 553.344 118.609 555.688 118.281L556.391 124.281C553.438 124.703 550.469 124.992 547.484 125.148C544.5 125.289 541.109 125.359 537.312 125.359H533.797V94.75H554.094V100.75ZM592.766 118.047C595.969 118.062 598.742 118.398 601.086 119.055C603.43 119.711 605.234 120.664 606.5 121.914C607.766 123.148 608.406 124.641 608.422 126.391C608.406 128.109 607.758 129.594 606.477 130.844C605.211 132.109 603.406 133.07 601.062 133.727C598.719 134.398 595.953 134.734 592.766 134.734C589.641 134.734 586.898 134.398 584.539 133.727C582.195 133.055 580.375 132.094 579.078 130.844C577.797 129.594 577.156 128.109 577.156 126.391C577.156 124.656 577.797 123.164 579.078 121.914C580.359 120.664 582.172 119.711 584.516 119.055C586.875 118.398 589.625 118.062 592.766 118.047ZM592.766 123.578C587.344 123.578 584.656 124.516 584.703 126.391C584.688 127.328 585.344 128.008 586.672 128.43C588 128.852 590.031 129.062 592.766 129.062C595.531 129.062 597.586 128.852 598.93 128.43C600.289 128.008 600.969 127.328 600.969 126.391C600.969 124.516 598.234 123.578 592.766 123.578ZM608.281 96.5781C608.281 98.9062 608.211 100.938 608.07 102.672C607.93 104.406 607.578 106.25 607.016 108.203L599.656 107.547C600.031 105.969 600.289 104.508 600.43 103.164C600.586 101.805 600.68 100.391 600.711 98.9219H577.719V93.1094H608.281V96.5781ZM612.734 116.172H573.453V110.125H587.188V103H594.641V110.125H612.734V116.172ZM640.391 100.562H614.75V94.7031H623.797V91.0938H631.344V94.7031H640.391V100.562ZM627.547 101.406C629.625 101.406 631.484 101.75 633.125 102.438C634.781 103.125 636.07 104.078 636.992 105.297C637.914 106.516 638.375 107.906 638.375 109.469C638.375 111.062 637.914 112.477 636.992 113.711C636.07 114.93 634.789 115.883 633.148 116.57C631.508 117.242 629.641 117.578 627.547 117.578C625.469 117.578 623.602 117.242 621.945 116.57C620.289 115.883 618.984 114.922 618.031 113.688C617.094 112.453 616.625 111.047 616.625 109.469C616.625 107.922 617.094 106.539 618.031 105.32C618.984 104.086 620.289 103.125 621.945 102.438C623.602 101.75 625.469 101.406 627.547 101.406ZM627.547 106.938C626.438 106.938 625.562 107.148 624.922 107.57C624.297 107.992 623.984 108.625 623.984 109.469C623.984 110.328 624.297 110.961 624.922 111.367C625.547 111.758 626.422 111.938 627.547 111.906C628.703 111.938 629.609 111.758 630.266 111.367C630.922 110.961 631.25 110.328 631.25 109.469C631.25 108.625 630.914 107.992 630.242 107.57C629.586 107.148 628.688 106.938 627.547 106.938ZM649.484 102.109H654.875V108.156H649.484V118.562H641.938V91.2812H649.484V102.109ZM649.484 134.641H641.938V125.969H619.812V120.016H649.484V134.641ZM680.844 99.5781C680.844 102.688 680.781 105.438 680.656 107.828C680.531 110.219 680.219 112.891 679.719 115.844L672.359 115.281C672.75 112.734 673.008 110.414 673.133 108.32C673.258 106.211 673.336 103.875 673.367 101.312H658.109V95.3594H680.844V99.5781ZM670.391 120.016C674.875 119.797 678.719 119.484 681.922 119.078L682.391 124.609C678.797 125.25 675.039 125.688 671.117 125.922C667.211 126.141 663.094 126.25 658.766 126.25H656.562L655.953 120.344H656.562C657.625 120.328 658.695 120.312 659.773 120.297C660.852 120.281 661.938 120.266 663.031 120.25V107.828H670.391V120.016ZM691.156 108.25H696.312V114.484H691.156V134.641H683.516V91.2812H691.156V108.25Z" fill="#FFFFFF"/>
</svg>
